<svg width="40" height="40" viewBox="0 0 40 40" fill="none" xmlns="http://www.w3.org/2000/svg">
<g id="BrightnessAltHigh" clip-path="url(#clip0_934_1306)">
<path id="Vector" d="M20 7.5C20.3315 7.5 20.6495 7.6317 20.8839 7.86612C21.1183 8.10054 21.25 8.41848 21.25 8.75V13.75C21.25 14.0815 21.1183 14.3995 20.8839 14.6339C20.6495 14.8683 20.3315 15 20 15C19.6685 15 19.3505 14.8683 19.1161 14.6339C18.8817 14.3995 18.75 14.0815 18.75 13.75V8.75C18.75 8.41848 18.8817 8.10054 19.1161 7.86612C19.3505 7.6317 19.6685 7.5 20 7.5ZM40 27.5C40 27.8315 39.8683 28.1495 39.6339 28.3839C39.3995 28.6183 39.0815 28.75 38.75 28.75H33.75C33.4185 28.75 33.1005 28.6183 32.8661 28.3839C32.6317 28.1495 32.5 27.8315 32.5 27.5C32.5 27.1685 32.6317 26.8505 32.8661 26.6161C33.1005 26.3817 33.4185 26.25 33.75 26.25H38.75C39.0815 26.25 39.3995 26.3817 39.6339 26.6161C39.8683 26.8505 40 27.1685 40 27.5ZM6.25 28.75C6.58152 28.75 6.89946 28.6183 7.13388 28.3839C7.3683 28.1495 7.5 27.8315 7.5 27.5C7.5 27.1685 7.3683 26.8505 7.13388 26.6161C6.89946 26.3817 6.58152 26.25 6.25 26.25H1.25C0.918479 26.25 0.600537 26.3817 0.366117 26.6161C0.131696 26.8505 0 27.1685 0 27.5C0 27.8315 0.131696 28.1495 0.366117 28.3839C0.600537 28.6183 0.918479 28.75 1.25 28.75H6.25ZM34.1425 13.3575C34.3768 13.5919 34.5085 13.9098 34.5085 14.2412C34.5085 14.5727 34.3768 14.8906 34.1425 15.125L30.6075 18.66C30.4922 18.7794 30.3543 18.8746 30.2018 18.9401C30.0492 19.0056 29.8852 19.0401 29.7193 19.0416C29.5533 19.043 29.3887 19.0114 29.2351 18.9485C29.0814 18.8857 28.9419 18.7929 28.8245 18.6755C28.7071 18.5581 28.6143 18.4186 28.5515 18.2649C28.4886 18.1113 28.457 17.9467 28.4584 17.7807C28.4599 17.6148 28.4944 17.4507 28.5599 17.2982C28.6254 17.1457 28.7206 17.0078 28.84 16.8925L32.375 13.3575C32.6094 13.1232 32.9273 12.9915 33.2588 12.9915C33.5902 12.9915 33.9081 13.1232 34.1425 13.3575ZM9.3925 18.66C9.62825 18.8877 9.94401 19.0137 10.2718 19.0108C10.5995 19.008 10.913 18.8765 11.1448 18.6448C11.3765 18.413 11.508 18.0995 11.5108 17.7718C11.5137 17.444 11.3877 17.1283 11.16 16.8925L7.625 13.3575C7.50969 13.2381 7.37176 13.1429 7.21926 13.0774C7.06675 13.0119 6.90273 12.9774 6.73675 12.9759C6.57078 12.9745 6.40618 13.0061 6.25256 13.069C6.09894 13.1318 5.95937 13.2246 5.84201 13.342C5.72464 13.4594 5.63182 13.5989 5.56897 13.7526C5.50612 13.9062 5.47449 14.0708 5.47594 14.2368C5.47738 14.4027 5.51186 14.5668 5.57737 14.7193C5.64288 14.8718 5.73811 15.0097 5.8575 15.125L9.3925 18.66ZM20 17.5C17.3478 17.5 14.8043 18.5536 12.9289 20.4289C11.0536 22.3043 10 24.8478 10 27.5C10 27.8315 10.1317 28.1495 10.3661 28.3839C10.6005 28.6183 10.9185 28.75 11.25 28.75H28.75C29.0815 28.75 29.3995 28.6183 29.6339 28.3839C29.8683 28.1495 30 27.8315 30 27.5C30 24.8478 28.9464 22.3043 27.0711 20.4289C25.1957 18.5536 22.6522 17.5 20 17.5ZM20 20C21.7728 19.9994 23.4885 20.6269 24.8427 21.771C26.1969 22.9151 27.102 24.502 27.3975 26.25H12.6C12.8955 24.5016 13.801 22.9144 15.1557 21.7702C16.5105 20.626 18.2268 19.9988 20 20Z" fill="#696969"/>
</g>
<defs>
<clipPath id="clip0_934_1306">
<rect width="40" height="40" fill="white"/>
</clipPath>
</defs>
</svg>
