<svg width="40" height="40" viewBox="0 0 40 40" fill="none" xmlns="http://www.w3.org/2000/svg">
<g id="BrightnessAltLow">
<path id="Vector" d="M21.25 13.75C21.25 14.0815 21.1183 14.3995 20.8839 14.6339C20.6495 14.8683 20.3315 15 20 15C19.6685 15 19.3505 14.8683 19.1161 14.6339C18.8817 14.3995 18.75 14.0815 18.75 13.75C18.75 13.4185 18.8817 13.1005 19.1161 12.8661C19.3505 12.6317 19.6685 12.5 20 12.5C20.3315 12.5 20.6495 12.6317 20.8839 12.8661C21.1183 13.1005 21.25 13.4185 21.25 13.75ZM33.75 28.75C33.4185 28.75 33.1005 28.6183 32.8661 28.3839C32.6317 28.1495 32.5 27.8315 32.5 27.5C32.5 27.1685 32.6317 26.8505 32.8661 26.6161C33.1005 26.3817 33.4185 26.25 33.75 26.25C34.0815 26.25 34.3995 26.3817 34.6339 26.6161C34.8683 26.8505 35 27.1685 35 27.5C35 27.8315 34.8683 28.1495 34.6339 28.3839C34.3995 28.6183 34.0815 28.75 33.75 28.75ZM5 27.5C5 27.8315 5.1317 28.1495 5.36612 28.3839C5.60054 28.6183 5.91848 28.75 6.25 28.75C6.58152 28.75 6.89946 28.6183 7.13388 28.3839C7.3683 28.1495 7.5 27.8315 7.5 27.5C7.5 27.1685 7.3683 26.8505 7.13388 26.6161C6.89946 26.3817 6.58152 26.25 6.25 26.25C5.91848 26.25 5.60054 26.3817 5.36612 26.6161C5.1317 26.8505 5 27.1685 5 27.5ZM30.6075 18.66C30.4922 18.7794 30.3543 18.8746 30.2018 18.9401C30.0492 19.0056 29.8852 19.0401 29.7193 19.0416C29.5533 19.043 29.3887 19.0114 29.2351 18.9485C29.0814 18.8857 28.9419 18.7929 28.8245 18.6755C28.7071 18.5581 28.6143 18.4186 28.5515 18.2649C28.4886 18.1113 28.457 17.9467 28.4584 17.7807C28.4599 17.6148 28.4944 17.4507 28.5599 17.2982C28.6254 17.1457 28.7206 17.0078 28.84 16.8925C29.0758 16.6648 29.3915 16.5388 29.7193 16.5417C30.047 16.5445 30.3605 16.676 30.5923 16.9077C30.824 17.1395 30.9555 17.453 30.9583 17.7807C30.9612 18.1085 30.8352 18.4242 30.6075 18.66ZM9.3925 16.8925C9.27311 17.0078 9.17788 17.1457 9.11237 17.2982C9.04686 17.4507 9.01238 17.6148 9.01094 17.7807C9.00949 17.9467 9.04112 18.1113 9.10397 18.2649C9.16682 18.4186 9.25964 18.5581 9.37701 18.6755C9.49437 18.7929 9.63394 18.8857 9.78756 18.9485C9.94118 19.0114 10.1058 19.043 10.2718 19.0416C10.4377 19.0401 10.6017 19.0056 10.7543 18.9401C10.9068 18.8746 11.0447 18.7794 11.16 18.66C11.3877 18.4242 11.5137 18.1085 11.5108 17.7807C11.508 17.453 11.3765 17.1395 11.1448 16.9077C10.913 16.676 10.5995 16.5445 10.2718 16.5417C9.94401 16.5388 9.62825 16.6648 9.3925 16.8925ZM20 17.5C17.3478 17.5 14.8043 18.5536 12.9289 20.4289C11.0536 22.3043 10 24.8478 10 27.5C10 27.8315 10.1317 28.1495 10.3661 28.3839C10.6005 28.6183 10.9185 28.75 11.25 28.75H28.75C29.0815 28.75 29.3995 28.6183 29.6339 28.3839C29.8683 28.1495 30 27.8315 30 27.5C30 24.8478 28.9464 22.3043 27.0711 20.4289C25.1957 18.5536 22.6522 17.5 20 17.5ZM20 20C21.7728 19.9994 23.4885 20.6269 24.8427 21.771C26.1969 22.9151 27.102 24.502 27.3975 26.25H12.6C12.8955 24.5016 13.801 22.9144 15.1557 21.7702C16.5105 20.626 18.2268 19.9988 20 20Z" fill="#696969"/>
</g>
</svg>
